<svg xmlns="http://www.w3.org/2000/svg" viewBox="0 0 1200 750" font-family="'Space Grotesk','Inter',Arial,sans-serif">
  <defs>
    <linearGradient id="grad" x1="0" y1="0" x2="1" y2="1">
      <stop offset="0" stop-color="#a78bfa"/>
      <stop offset="1" stop-color="#22d3ee"/>
    </linearGradient>
    <linearGradient id="bg" x1="0" y1="0" x2="1" y2="1">
      <stop offset="0" stop-color="#0c0a16"/>
      <stop offset="1" stop-color="#0a0a12"/>
    </linearGradient>
    <radialGradient id="glowA" cx="0.15" cy="0.1" r="0.5">
      <stop offset="0" stop-color="#a78bfa" stop-opacity="0.22"/>
      <stop offset="1" stop-color="#a78bfa" stop-opacity="0"/>
    </radialGradient>
    <radialGradient id="glowB" cx="0.9" cy="0.95" r="0.5">
      <stop offset="0" stop-color="#22d3ee" stop-opacity="0.18"/>
      <stop offset="1" stop-color="#22d3ee" stop-opacity="0"/>
    </radialGradient>
    <marker id="arrow" markerWidth="10" markerHeight="10" refX="7" refY="3" orient="auto">
      <path d="M0,0 L7,3 L0,6 Z" fill="#5b6178"/>
    </marker>
    <marker id="arrowG" markerWidth="10" markerHeight="10" refX="7" refY="3" orient="auto">
      <path d="M0,0 L7,3 L0,6 Z" fill="#22d3ee"/>
    </marker>
  </defs>

  <!-- background -->
  <rect width="1200" height="750" fill="url(#bg)"/>
  <rect width="1200" height="750" fill="url(#glowA)"/>
  <rect width="1200" height="750" fill="url(#glowB)"/>

  <!-- header -->
  <text x="60" y="74" fill="#f4f5fb" font-size="38" font-weight="700">How this portfolio is built</text>
  <text x="60" y="108" fill="#8b8fa6" font-size="19" font-weight="400">Full-stack serverless on AWS · React + Vite · S3 + CloudFront · Lambda API · 100% free-tier</text>
  <text x="1140" y="74" text-anchor="end" font-size="22" font-weight="600" fill="url(#grad)">nicholasmuchelemba.com</text>

  <!-- divider -->
  <rect x="60" y="128" width="1080" height="2" fill="#1c1a2b"/>

  <!-- ============ LANE 1: LIVE DELIVERY ============ -->
  <text x="60" y="178" fill="#22d3ee" font-size="14" font-weight="600" letter-spacing="2">LIVE DELIVERY</text>

  <!-- Visitor -->
  <g>
    <rect x="60" y="200" width="190" height="96" rx="16" fill="#13111f" stroke="#2a2740"/>
    <text x="155" y="240" text-anchor="middle" fill="#f4f5fb" font-size="20" font-weight="600">Visitor</text>
    <text x="155" y="266" text-anchor="middle" fill="#8b8fa6" font-size="14">Browser · HTTPS</text>
  </g>

  <!-- Route 53 -->
  <g>
    <rect x="330" y="150" width="200" height="78" rx="14" fill="#13111f" stroke="#2a2740"/>
    <text x="430" y="184" text-anchor="middle" fill="#f4f5fb" font-size="18" font-weight="600">Route 53</text>
    <text x="430" y="208" text-anchor="middle" fill="#8b8fa6" font-size="13">DNS · apex + www</text>
  </g>
  <!-- ACM -->
  <g>
    <rect x="330" y="268" width="200" height="78" rx="14" fill="#13111f" stroke="#2a2740"/>
    <text x="430" y="302" text-anchor="middle" fill="#f4f5fb" font-size="18" font-weight="600">ACM</text>
    <text x="430" y="326" text-anchor="middle" fill="#8b8fa6" font-size="13">TLS certificate</text>
  </g>

  <!-- CloudFront -->
  <g>
    <rect x="612" y="196" width="216" height="104" rx="16" fill="#171526" stroke="url(#grad)" stroke-width="1.5"/>
    <text x="720" y="236" text-anchor="middle" fill="#f4f5fb" font-size="21" font-weight="700">CloudFront</text>
    <text x="720" y="262" text-anchor="middle" fill="#8b8fa6" font-size="13.5">Global CDN · HTTPS</text>
    <text x="720" y="282" text-anchor="middle" fill="#8b8fa6" font-size="13.5">www → apex redirect</text>
  </g>

  <!-- S3 -->
  <g>
    <rect x="910" y="196" width="230" height="104" rx="16" fill="#13111f" stroke="#2a2740"/>
    <text x="1025" y="236" text-anchor="middle" fill="#f4f5fb" font-size="21" font-weight="700">S3 bucket</text>
    <text x="1025" y="262" text-anchor="middle" fill="#8b8fa6" font-size="13.5">Private · OAC only</text>
    <text x="1025" y="282" text-anchor="middle" fill="#8b8fa6" font-size="13.5">React static build</text>
  </g>

  <!-- arrows lane 1 -->
  <line x1="250" y1="248" x2="606" y2="248" stroke="#5b6178" stroke-width="2" marker-end="url(#arrowG)"/>
  <line x1="828" y1="248" x2="904" y2="248" stroke="#5b6178" stroke-width="2" marker-end="url(#arrow)"/>
  <!-- route53 / acm into cloudfront -->
  <line x1="530" y1="189" x2="612" y2="224" stroke="#3a3752" stroke-width="1.6" marker-end="url(#arrow)"/>
  <line x1="530" y1="307" x2="612" y2="272" stroke="#3a3752" stroke-width="1.6" marker-end="url(#arrow)"/>
  <text x="412" y="262" text-anchor="middle" fill="#5b6178" font-size="12">resolve + secure</text>

  <!-- ============ LANE 2: BUILD & DEPLOY ============ -->
  <text x="60" y="408" fill="#a78bfa" font-size="14" font-weight="600" letter-spacing="2">BUILD &amp; DEPLOY</text>

  <g>
    <rect x="60" y="430" width="220" height="86" rx="14" fill="#13111f" stroke="#2a2740"/>
    <text x="170" y="466" text-anchor="middle" fill="#f4f5fb" font-size="18" font-weight="600">React + Vite</text>
    <text x="170" y="490" text-anchor="middle" fill="#8b8fa6" font-size="13">component source</text>
  </g>
  <g>
    <rect x="350" y="430" width="220" height="86" rx="14" fill="#13111f" stroke="#2a2740"/>
    <text x="460" y="466" text-anchor="middle" fill="#f4f5fb" font-size="18" font-weight="600">npm run build</text>
    <text x="460" y="490" text-anchor="middle" fill="#8b8fa6" font-size="13">static dist/ bundle</text>
  </g>
  <g>
    <rect x="640" y="430" width="220" height="86" rx="14" fill="#13111f" stroke="#2a2740"/>
    <text x="750" y="466" text-anchor="middle" fill="#f4f5fb" font-size="18" font-weight="600">aws s3 sync</text>
    <text x="750" y="490" text-anchor="middle" fill="#8b8fa6" font-size="13">+ CDN invalidation</text>
  </g>

  <line x1="280" y1="473" x2="346" y2="473" stroke="#5b6178" stroke-width="2" marker-end="url(#arrow)"/>
  <line x1="570" y1="473" x2="636" y2="473" stroke="#5b6178" stroke-width="2" marker-end="url(#arrow)"/>
  <!-- deploy arrow up into S3 -->
  <path d="M860,455 C950,455 1025,420 1025,304" fill="none" stroke="#a78bfa" stroke-width="2" stroke-dasharray="5 5" marker-end="url(#arrow)"/>
  <text x="930" y="440" text-anchor="middle" fill="#7c7f96" font-size="12">deploy to bucket</text>

  <!-- ============ LANE 3: LIVE SERVERLESS ============ -->
  <text x="60" y="582" fill="#22d3ee" font-size="14" font-weight="600" letter-spacing="2">LIVE · SERVERLESS API</text>
  <text x="248" y="582" fill="#5b6178" font-size="13" font-weight="400">· called from the browser via fetch()</text>

  <g>
    <rect x="60" y="600" width="210" height="92" rx="14" fill="#13111f" stroke="#2a2740"/>
    <text x="165" y="638" text-anchor="middle" fill="#f4f5fb" font-size="17" font-weight="600">API Gateway</text>
    <text x="165" y="662" text-anchor="middle" fill="#8b8fa6" font-size="13">POST /visits · /contact</text>
  </g>
  <g>
    <rect x="330" y="600" width="210" height="92" rx="14" fill="#13111f" stroke="#2a2740"/>
    <text x="435" y="638" text-anchor="middle" fill="#f4f5fb" font-size="17" font-weight="600">Lambda</text>
    <text x="435" y="662" text-anchor="middle" fill="#8b8fa6" font-size="13">Node 20 · 2 functions</text>
  </g>
  <g>
    <rect x="600" y="600" width="240" height="44" rx="11" fill="#13111f" stroke="#2a2740"/>
    <text x="720" y="628" text-anchor="middle" fill="#cdd1e0" font-size="15" font-weight="500">DynamoDB · visitor counter</text>
  </g>
  <g>
    <rect x="600" y="648" width="240" height="44" rx="11" fill="#13111f" stroke="#2a2740"/>
    <text x="720" y="676" text-anchor="middle" fill="#cdd1e0" font-size="15" font-weight="500">SES · contact form email</text>
  </g>

  <line x1="270" y1="646" x2="326" y2="646" stroke="#5b6178" stroke-width="1.8" marker-end="url(#arrow)"/>
  <line x1="540" y1="630" x2="596" y2="623" stroke="#5b6178" stroke-width="1.8" marker-end="url(#arrow)"/>
  <line x1="540" y1="660" x2="596" y2="668" stroke="#5b6178" stroke-width="1.8" marker-end="url(#arrow)"/>

  <!-- footer tag -->
  <text x="1140" y="712" text-anchor="end" fill="#4a4860" font-size="13">Full-stack serverless · AWS · 2026</text>
</svg>
